<svg xmlns="http://www.w3.org/2000/svg" version="1.1" xmlns:xlink="http://www.w3.org/1999/xlink" xmlns:svgjs="http://svgjs.dev/svgjs" width="1000" height="707" viewBox="0 0 1000 707"><g transform="matrix(1,0,0,1,-0.6060606060606233,0)"><svg viewBox="0 0 396 280" data-background-color="#ffffff" preserveAspectRatio="xMidYMid meet" height="400" width="400" xmlns="http://www.w3.org/2000/svg" xmlns:xlink="http://www.w3.org/1999/xlink"><g id="tight-bounds" transform="matrix(1,0,0,1,0.2400000000000091,0)"><svg viewBox="0 0 395.52 280" height="280" width="395.52"><g><svg viewBox="0 0 395.52 280" height="280" width="395.52"><g><svg viewBox="0 0 395.52 280" height="280" width="395.52"><g><svg viewBox="0 0 395.52 280" height="280" width="395.52"><g><svg viewBox="0 0 395.52 280" height="280" width="395.52"><g transform="matrix(1,0,0,1,104.53504196836558,74.00336708925556)"><svg viewBox="0 0 186.44991606326883 131.99326582148888" height="131.99326582148888" width="186.44991606326883"><g><circle r="66" cx="93.22495803163442" cy="65.99663291074444" fill="#d90000" data-fill-palette-color="accent"></circle></g></svg></g><path d="M188.253 0.259L198.993 0.005C201-0.043 202.737 0.268 204.203 0.939 205.676 1.609 206.836 2.583 207.684 3.859 208.533 5.136 208.979 6.692 209.022 8.527V8.527C209.065 10.335 208.693 11.904 207.907 13.233 207.12 14.562 206.007 15.596 204.568 16.335 203.135 17.074 201.415 17.467 199.408 17.515V17.515L193.195 17.662 193.442 28.073 188.915 28.18ZM193.103 13.773L198.598 13.643C200.599 13.596 202.065 13.145 202.995 12.292 203.92 11.438 204.363 10.221 204.326 8.638V8.638C204.288 7.03 203.787 5.821 202.823 5.012 201.853 4.204 200.367 3.823 198.366 3.871V3.871L192.872 4.001ZM189.075 251.972L199.815 252.227C201.823 252.274 203.543 252.667 204.975 253.406 206.414 254.146 207.527 255.173 208.314 256.489 209.101 257.804 209.473 259.38 209.43 261.215V261.215C209.387 263.023 208.941 264.572 208.092 265.862 207.243 267.152 206.083 268.133 204.61 268.803 203.144 269.473 201.408 269.784 199.4 269.737V269.737L193.188 269.59 192.941 280 188.414 279.893ZM193.28 265.701L198.774 265.831C200.775 265.878 202.261 265.498 203.231 264.689 204.195 263.881 204.695 262.685 204.733 261.103V261.103C204.771 259.494 204.328 258.263 203.404 257.41 202.473 256.556 201.007 256.106 199.006 256.059V256.059L193.511 255.928ZM61.41 143.46C61.41 137.568 66.187 132.792 72.079 132.792 77.971 132.792 82.748 137.568 82.748 143.46 82.748 149.352 77.971 154.129 72.079 154.129 66.187 154.129 61.41 149.352 61.41 143.46ZM312.772 143.46C312.772 137.568 317.549 132.792 323.441 132.792 329.333 132.792 334.11 137.568 334.11 143.46 334.11 149.352 329.333 154.129 323.441 154.129 317.549 154.129 312.772 149.352 312.772 143.46Z" fill="#0063db" data-fill-palette-color="primary"></path></svg></g></svg></g></svg></g></svg></g><defs></defs></svg><rect width="395.52" height="280" fill="none" stroke="none" visibility="hidden"></rect></g></svg></g></svg>